<svg width="12" height="12" viewBox="0 0 12 12" fill="none" xmlns="http://www.w3.org/2000/svg">
    <path fill-rule="evenodd" clip-rule="evenodd" d="M9.83651 0H11.2475C11.4028 0 11.5513 0.155278 11.5446 0.297053C11.5446 0.464386 11.4648 0.533554 11.4106 0.580592L11.4028 0.587355L8.02719 3.84144V3.84819C7.91917 3.96296 7.73689 3.96296 7.62887 3.84819C7.5411 3.76042 7.5276 3.63215 7.58161 3.52413C7.58161 3.52413 9.19515 0.506341 9.32342 0.270048C9.45169 0.033756 9.72849 0 9.83651 0ZM11.9226 5.95447C11.9226 9.24907 9.25591 11.9158 5.96132 11.9158C2.67348 11.9158 0 9.24907 0 5.95447C0 2.95019 2.22115 0.465743 5.11066 0.0539188C5.12333 0.0507533 5.13599 0.0490721 5.14795 0.0474832C5.16151 0.0456834 5.17417 0.0440021 5.18493 0.0404164C5.27945 0.0471676 5.36046 0.107928 5.38747 0.202445L5.39422 0.290211L5.62376 2.97044L5.63051 3.0447C5.62376 3.13922 5.55625 3.21348 5.46848 3.24049C5.45498 3.24049 5.44147 3.24049 5.42797 3.24724C4.15874 3.49704 3.19332 4.61774 3.19332 5.96123C3.19332 7.487 4.42879 8.72922 5.96132 8.72922C7.48709 8.72922 8.72256 7.49375 8.72931 5.97473V5.96798V5.95447V5.94097C8.73606 5.84646 8.79683 5.77219 8.88459 5.74519L8.9251 5.73844L11.6053 5.18484L11.6661 5.17134H11.6796C11.7809 5.17134 11.8686 5.23885 11.8956 5.34012C11.8956 5.34951 11.8971 5.35891 11.8986 5.36899C11.9004 5.38062 11.9024 5.39316 11.9024 5.40763C11.9159 5.57641 11.9226 5.76544 11.9226 5.95447ZM7.85165 5.95455C7.85165 6.99423 7.00775 7.84489 5.96806 7.84489C4.92838 7.84489 4.07773 7.00098 4.07773 5.95455C4.07773 4.91486 4.92163 4.06421 5.96806 4.06421C7.00775 4.07096 7.85165 4.91486 7.85165 5.95455ZM7.70988 0.992426L6.84573 3.12581C6.79847 3.24733 6.65669 3.30809 6.52842 3.26083C6.42715 3.22032 6.37314 3.12581 6.37989 3.02454L6.49466 0.729129C6.51492 0.378066 6.81197 0.114769 7.15628 0.128271C7.50734 0.148525 7.77064 0.445578 7.75714 0.78989C7.75039 0.857402 7.73013 0.924914 7.70988 0.992426ZM8.75632 4.93512L10.9437 4.22624C11.0045 4.20599 11.072 4.17223 11.126 4.12498C11.4028 3.91569 11.4568 3.51737 11.2475 3.24057C11.0382 2.96377 10.6399 2.90976 10.3631 3.11905L8.53353 4.50979C8.45927 4.57056 8.41876 4.67857 8.45251 4.77984C8.49302 4.90812 8.62805 4.97563 8.75632 4.93512Z" fill="#F48120"/>
</svg>
