<svg width="24" height="24" viewBox="0 0 24 24" fill="none" xmlns="http://www.w3.org/2000/svg">
    <path fill-rule="evenodd" clip-rule="evenodd" d="M12 24C18.6274 24 24 18.6274 24 12C24 5.37258 18.6274 0 12 0C5.37258 0 0 5.37258 0 12C0 18.6274 5.37258 24 12 24ZM9 7.35714C9 6.96265 9.33579 6.64286 9.75 6.64286H14.25V6.64285H17.1555C16.8224 5.41055 15.6479 4.5 14.25 4.5H9.75C8.09315 4.5 6.75 5.77919 6.75 7.35714V15.2143H9V7.35714ZM9.75 19.5C8.35211 19.5 7.17754 18.5894 6.84451 17.3571H9.74504L9.75 17.3571H14.25C14.6642 17.3571 15 17.0373 15 16.6429V8.78571H17.25V16.6429C17.25 18.2208 15.9069 19.5 14.25 19.5H9.75Z" fill="#6E7171"/>
</svg>