<svg width="24" height="24" viewBox="0 0 24 24" fill="none" xmlns="http://www.w3.org/2000/svg">
    <path fill-rule="evenodd" clip-rule="evenodd" d="M12 0C5.3726 0 0 5.3726 0 12C0 18.6274 5.3726 24 12 24C18.6274 24 24 18.6274 24 12C24 5.3726 18.6274 0 12 0ZM9.36165 5.63865C10.0443 5.6076 10.2625 5.6 12.0006 5.6H11.9986C13.7373 5.6 13.9546 5.6076 14.6373 5.63865C15.3186 5.66985 15.7839 5.77775 16.192 5.936C16.6133 6.09935 16.9693 6.318 17.3253 6.674C17.6814 7.02975 17.9 7.3868 18.064 7.80775C18.2213 8.2147 18.3293 8.67975 18.3613 9.3611C18.392 10.0438 18.4 10.2619 18.4 12C18.4 13.7382 18.392 13.9558 18.3613 14.6385C18.3293 15.3196 18.2213 15.7848 18.064 16.1919C17.9 16.6126 17.6814 16.9697 17.3253 17.3255C16.9697 17.6815 16.6132 17.9007 16.1924 18.0641C15.7851 18.2224 15.3196 18.3302 14.6383 18.3615C13.9556 18.3925 13.7381 18.4002 11.9998 18.4002C10.2618 18.4002 10.0438 18.3925 9.3611 18.3615C8.6799 18.3302 8.2147 18.2224 7.8075 18.0641C7.3868 17.9007 7.02975 17.6815 6.67415 17.3255C6.31825 16.9697 6.0996 16.6126 5.936 16.1917C5.77785 15.7847 5.67 15.3197 5.63865 14.6383C5.60775 13.9557 5.6 13.7382 5.6 12C5.6 10.2619 5.608 10.0437 5.63855 9.36095C5.6692 8.6799 5.7772 8.2147 5.93585 7.8076C6.09985 7.3868 6.31855 7.02975 6.67455 6.674C7.0303 6.31815 7.38735 6.09945 7.8083 5.936C8.21525 5.77775 8.6803 5.66985 9.36165 5.63865Z" fill="#6E7171"/>
    <path fill-rule="evenodd" clip-rule="evenodd" d="M11.4265 6.75343C11.538 6.75328 11.6579 6.75333 11.7873 6.75338L12.0007 6.75343C13.7095 6.75343 13.912 6.75958 14.5868 6.79023C15.2108 6.81878 15.5495 6.92303 15.7751 7.01063C16.0738 7.12663 16.2867 7.26533 16.5106 7.48933C16.7346 7.71333 16.8732 7.92668 16.9895 8.22533C17.0771 8.45068 17.1815 8.78933 17.2099 9.41333C17.2406 10.088 17.2472 10.2907 17.2472 11.9987C17.2472 13.7067 17.2406 13.9094 17.2099 14.5841C17.1814 15.2081 17.0771 15.5467 16.9895 15.7721C16.8735 16.0707 16.7346 16.2834 16.5106 16.5073C16.2866 16.7313 16.0739 16.87 15.7751 16.986C15.5498 17.074 15.2108 17.178 14.5868 17.2065C13.9121 17.2372 13.7095 17.2438 12.0007 17.2438C10.2917 17.2438 10.0892 17.2372 9.41446 17.2065C8.79046 17.1777 8.45181 17.0734 8.22606 16.9858C7.92741 16.8698 7.71406 16.7311 7.49006 16.5071C7.26606 16.2831 7.12741 16.0703 7.01111 15.7715C6.92351 15.5462 6.81911 15.2075 6.79071 14.5835C6.76006 13.9089 6.75391 13.7062 6.75391 11.9971C6.75391 10.288 6.76006 10.0864 6.79071 9.41173C6.81926 8.78773 6.92351 8.44908 7.01111 8.22348C7.12711 7.92478 7.26606 7.71148 7.49006 7.48748C7.71406 7.26348 7.92741 7.12478 8.22606 7.00853C8.45166 6.92053 8.79046 6.81653 9.41446 6.78783C10.0049 6.76118 10.2337 6.75318 11.4265 6.75183V6.75343ZM15.417 7.81613C14.993 7.81613 14.6489 8.15973 14.6489 8.58388C14.6489 9.00788 14.993 9.35188 15.417 9.35188C15.841 9.35188 16.185 9.00788 16.185 8.58388C16.185 8.15988 15.841 7.81588 15.417 7.81588V7.81613ZM8.71396 12.0002C8.71396 10.1851 10.1855 8.71353 12.0005 8.71348C13.8156 8.71348 15.2868 10.1851 15.2868 12.0002C15.2868 13.8153 13.8157 15.2862 12.0007 15.2862C10.1856 15.2862 8.71396 13.8153 8.71396 12.0002Z" fill="#6E7171"/>
    <path d="M12.0006 9.8667C13.1787 9.8667 14.1339 10.8218 14.1339 12C14.1339 13.1782 13.1787 14.1334 12.0006 14.1334C10.8223 14.1334 9.86722 13.1782 9.86722 12C9.86722 10.8218 10.8223 9.8667 12.0006 9.8667Z" fill="#6E7171"/>
</svg>